<mxfile host="app.diagrams.net" agent="Mozilla/5.0 (Macintosh; Intel Mac OS X 10_15_7) AppleWebKit/537.36 (KHTML, like Gecko) Chrome/127.0.0.0 Safari/537.36" version="24.7.6">
  <diagram name="Page-1" id="zMPpLmp2BSzUZY3K2JA0">
    <mxGraphModel dx="1841" dy="2040" grid="1" gridSize="10" guides="1" tooltips="1" connect="1" arrows="1" fold="1" page="1" pageScale="1" pageWidth="850" pageHeight="1100" math="0" shadow="0">
      <root>
        <mxCell id="0" />
        <mxCell id="1" parent="0" />
        <mxCell id="bT2Npeidby6_5tNQyf9h-3" value="" style="rounded=0;whiteSpace=wrap;html=1;" parent="1" vertex="1">
          <mxGeometry x="1080" y="-10" width="840" height="460" as="geometry" />
        </mxCell>
        <mxCell id="e1aIgJTpxy9oLLvaC0pB-3" value="" style="edgeStyle=orthogonalEdgeStyle;rounded=0;orthogonalLoop=1;jettySize=auto;html=1;" parent="1" source="e1aIgJTpxy9oLLvaC0pB-1" target="e1aIgJTpxy9oLLvaC0pB-2" edge="1">
          <mxGeometry relative="1" as="geometry" />
        </mxCell>
        <mxCell id="e1aIgJTpxy9oLLvaC0pB-1" value="Code" style="rounded=0;whiteSpace=wrap;html=1;" parent="1" vertex="1">
          <mxGeometry x="50" y="60" width="230" height="80" as="geometry" />
        </mxCell>
        <mxCell id="e1aIgJTpxy9oLLvaC0pB-5" value="" style="edgeStyle=orthogonalEdgeStyle;rounded=0;orthogonalLoop=1;jettySize=auto;html=1;" parent="1" source="e1aIgJTpxy9oLLvaC0pB-2" target="e1aIgJTpxy9oLLvaC0pB-4" edge="1">
          <mxGeometry relative="1" as="geometry" />
        </mxCell>
        <mxCell id="e1aIgJTpxy9oLLvaC0pB-2" value="IL&amp;nbsp;" style="rounded=0;whiteSpace=wrap;html=1;" parent="1" vertex="1">
          <mxGeometry x="50" y="220" width="230" height="80" as="geometry" />
        </mxCell>
        <mxCell id="e1aIgJTpxy9oLLvaC0pB-7" value="" style="edgeStyle=orthogonalEdgeStyle;rounded=0;orthogonalLoop=1;jettySize=auto;html=1;" parent="1" source="e1aIgJTpxy9oLLvaC0pB-4" target="e1aIgJTpxy9oLLvaC0pB-6" edge="1">
          <mxGeometry relative="1" as="geometry" />
        </mxCell>
        <mxCell id="e1aIgJTpxy9oLLvaC0pB-9" value="" style="edgeStyle=orthogonalEdgeStyle;rounded=0;orthogonalLoop=1;jettySize=auto;html=1;" parent="1" source="e1aIgJTpxy9oLLvaC0pB-4" target="e1aIgJTpxy9oLLvaC0pB-8" edge="1">
          <mxGeometry relative="1" as="geometry" />
        </mxCell>
        <mxCell id="e1aIgJTpxy9oLLvaC0pB-4" value="Net Framework 4.8 / .Net Core 8 , 9&lt;div&gt;&lt;br&gt;&lt;/div&gt;&lt;div&gt;&lt;br&gt;&lt;/div&gt;&lt;div&gt;ability convert IL code to Assebly&amp;nbsp;&lt;/div&gt;&lt;div&gt;GC&amp;nbsp;&lt;/div&gt;&lt;div&gt;Type safe&amp;nbsp;&lt;/div&gt;&lt;div&gt;&lt;br&gt;&lt;/div&gt;" style="rounded=0;whiteSpace=wrap;html=1;" parent="1" vertex="1">
          <mxGeometry x="50" y="380" width="300" height="160" as="geometry" />
        </mxCell>
        <mxCell id="e1aIgJTpxy9oLLvaC0pB-6" value="&lt;div&gt;run&amp;nbsp; the application in .net&amp;nbsp;&lt;br&gt;also to create&lt;/div&gt;" style="rounded=0;whiteSpace=wrap;html=1;" parent="1" vertex="1">
          <mxGeometry x="380" y="380" width="300" height="160" as="geometry" />
        </mxCell>
        <mxCell id="e1aIgJTpxy9oLLvaC0pB-11" value="" style="edgeStyle=orthogonalEdgeStyle;rounded=0;orthogonalLoop=1;jettySize=auto;html=1;" parent="1" source="e1aIgJTpxy9oLLvaC0pB-8" target="e1aIgJTpxy9oLLvaC0pB-10" edge="1">
          <mxGeometry relative="1" as="geometry" />
        </mxCell>
        <mxCell id="e1aIgJTpxy9oLLvaC0pB-8" value="&lt;div&gt;Assembly Code&amp;nbsp;&lt;/div&gt;" style="rounded=0;whiteSpace=wrap;html=1;" parent="1" vertex="1">
          <mxGeometry x="50" y="620" width="300" height="160" as="geometry" />
        </mxCell>
        <mxCell id="e1aIgJTpxy9oLLvaC0pB-10" value="&lt;div&gt;CPU&lt;/div&gt;" style="rounded=0;whiteSpace=wrap;html=1;" parent="1" vertex="1">
          <mxGeometry x="50" y="860" width="300" height="160" as="geometry" />
        </mxCell>
        <mxCell id="bT2Npeidby6_5tNQyf9h-2" value="" style="edgeStyle=orthogonalEdgeStyle;rounded=0;orthogonalLoop=1;jettySize=auto;html=1;" parent="1" source="e1aIgJTpxy9oLLvaC0pB-12" target="bT2Npeidby6_5tNQyf9h-1" edge="1">
          <mxGeometry relative="1" as="geometry" />
        </mxCell>
        <mxCell id="e1aIgJTpxy9oLLvaC0pB-12" value="Application A&amp;nbsp;&lt;br&gt;that stored&amp;nbsp;&lt;div&gt;In Database/ Memory&lt;/div&gt;" style="rounded=0;whiteSpace=wrap;html=1;" parent="1" vertex="1">
          <mxGeometry x="900" y="140" width="160" height="60" as="geometry" />
        </mxCell>
        <mxCell id="bT2Npeidby6_5tNQyf9h-1" value="Login action&amp;nbsp;" style="whiteSpace=wrap;html=1;rounded=0;" parent="1" vertex="1">
          <mxGeometry x="920" y="10" width="120" height="60" as="geometry" />
        </mxCell>
        <mxCell id="bT2Npeidby6_5tNQyf9h-6" value="" style="edgeStyle=orthogonalEdgeStyle;rounded=0;orthogonalLoop=1;jettySize=auto;html=1;" parent="1" source="bT2Npeidby6_5tNQyf9h-4" target="bT2Npeidby6_5tNQyf9h-5" edge="1">
          <mxGeometry relative="1" as="geometry" />
        </mxCell>
        <mxCell id="bT2Npeidby6_5tNQyf9h-4" value="Login action&amp;nbsp;" style="whiteSpace=wrap;html=1;rounded=0;" parent="1" vertex="1">
          <mxGeometry x="1090" y="10" width="120" height="60" as="geometry" />
        </mxCell>
        <mxCell id="bT2Npeidby6_5tNQyf9h-8" value="" style="edgeStyle=orthogonalEdgeStyle;rounded=0;orthogonalLoop=1;jettySize=auto;html=1;" parent="1" source="bT2Npeidby6_5tNQyf9h-5" target="bT2Npeidby6_5tNQyf9h-7" edge="1">
          <mxGeometry relative="1" as="geometry" />
        </mxCell>
        <mxCell id="bT2Npeidby6_5tNQyf9h-5" value="Auth API" style="whiteSpace=wrap;html=1;rounded=0;" parent="1" vertex="1">
          <mxGeometry x="1100" y="110" width="120" height="60" as="geometry" />
        </mxCell>
        <mxCell id="bT2Npeidby6_5tNQyf9h-10" value="" style="edgeStyle=orthogonalEdgeStyle;rounded=0;orthogonalLoop=1;jettySize=auto;html=1;" parent="1" source="bT2Npeidby6_5tNQyf9h-7" target="bT2Npeidby6_5tNQyf9h-9" edge="1">
          <mxGeometry relative="1" as="geometry" />
        </mxCell>
        <mxCell id="bT2Npeidby6_5tNQyf9h-7" value="Return&amp;nbsp;" style="whiteSpace=wrap;html=1;rounded=0;" parent="1" vertex="1">
          <mxGeometry x="1100" y="220" width="120" height="60" as="geometry" />
        </mxCell>
        <mxCell id="bT2Npeidby6_5tNQyf9h-12" value="" style="edgeStyle=orthogonalEdgeStyle;rounded=0;orthogonalLoop=1;jettySize=auto;html=1;" parent="1" source="bT2Npeidby6_5tNQyf9h-9" target="bT2Npeidby6_5tNQyf9h-11" edge="1">
          <mxGeometry relative="1" as="geometry" />
        </mxCell>
        <mxCell id="bT2Npeidby6_5tNQyf9h-9" value="JWT token to client side" style="whiteSpace=wrap;html=1;rounded=0;" parent="1" vertex="1">
          <mxGeometry x="1100" y="330" width="120" height="60" as="geometry" />
        </mxCell>
        <mxCell id="bT2Npeidby6_5tNQyf9h-11" value="used for others apis" style="whiteSpace=wrap;html=1;rounded=0;" parent="1" vertex="1">
          <mxGeometry x="1275" y="330" width="120" height="60" as="geometry" />
        </mxCell>
        <mxCell id="bT2Npeidby6_5tNQyf9h-17" style="edgeStyle=orthogonalEdgeStyle;rounded=0;orthogonalLoop=1;jettySize=auto;html=1;entryX=0;entryY=0.5;entryDx=0;entryDy=0;" parent="1" source="bT2Npeidby6_5tNQyf9h-13" target="bT2Npeidby6_5tNQyf9h-15" edge="1">
          <mxGeometry relative="1" as="geometry">
            <Array as="points">
              <mxPoint x="1590" y="150" />
              <mxPoint x="1510" y="150" />
              <mxPoint x="1510" y="290" />
            </Array>
          </mxGeometry>
        </mxCell>
        <mxCell id="yGUTDMeZ-cwYMbmgKR_8-2" value="" style="edgeStyle=orthogonalEdgeStyle;rounded=0;orthogonalLoop=1;jettySize=auto;html=1;" parent="1" source="bT2Npeidby6_5tNQyf9h-13" target="yGUTDMeZ-cwYMbmgKR_8-1" edge="1">
          <mxGeometry relative="1" as="geometry" />
        </mxCell>
        <mxCell id="bT2Npeidby6_5tNQyf9h-13" value="Server A&lt;div&gt;&lt;br&gt;&lt;/div&gt;&lt;div&gt;key - uiOp&lt;/div&gt;" style="rounded=0;whiteSpace=wrap;html=1;" parent="1" vertex="1">
          <mxGeometry x="1560" y="20" width="120" height="60" as="geometry" />
        </mxCell>
        <mxCell id="bT2Npeidby6_5tNQyf9h-14" value="Server B&lt;div&gt;&lt;br&gt;&lt;/div&gt;&lt;div&gt;key -uiOp&lt;/div&gt;" style="rounded=0;whiteSpace=wrap;html=1;" parent="1" vertex="1">
          <mxGeometry x="1730" y="20" width="120" height="60" as="geometry" />
        </mxCell>
        <mxCell id="bT2Npeidby6_5tNQyf9h-16" style="edgeStyle=orthogonalEdgeStyle;rounded=0;orthogonalLoop=1;jettySize=auto;html=1;" parent="1" source="bT2Npeidby6_5tNQyf9h-15" target="bT2Npeidby6_5tNQyf9h-13" edge="1">
          <mxGeometry relative="1" as="geometry" />
        </mxCell>
        <mxCell id="bT2Npeidby6_5tNQyf9h-18" style="edgeStyle=orthogonalEdgeStyle;rounded=0;orthogonalLoop=1;jettySize=auto;html=1;" parent="1" source="bT2Npeidby6_5tNQyf9h-15" target="bT2Npeidby6_5tNQyf9h-14" edge="1">
          <mxGeometry relative="1" as="geometry" />
        </mxCell>
        <mxCell id="bT2Npeidby6_5tNQyf9h-15" value="client" style="rounded=0;whiteSpace=wrap;html=1;" parent="1" vertex="1">
          <mxGeometry x="1540" y="310" width="120" height="60" as="geometry" />
        </mxCell>
        <mxCell id="zWEXtKfSe3jLvxgbQW-T-39" style="edgeStyle=orthogonalEdgeStyle;rounded=0;orthogonalLoop=1;jettySize=auto;html=1;entryX=0.324;entryY=0;entryDx=0;entryDy=0;entryPerimeter=0;" edge="1" parent="1" source="3sz32q1fqLbtD-IGLNPh-1" target="zWEXtKfSe3jLvxgbQW-T-41">
          <mxGeometry relative="1" as="geometry">
            <mxPoint x="1460" y="1210" as="targetPoint" />
            <Array as="points">
              <mxPoint x="1470" y="1110" />
              <mxPoint x="1470" y="1180" />
              <mxPoint x="1570" y="1180" />
            </Array>
          </mxGeometry>
        </mxCell>
        <mxCell id="3sz32q1fqLbtD-IGLNPh-1" value="Order.ocelot.json" style="whiteSpace=wrap;html=1;" parent="1" vertex="1">
          <mxGeometry x="1190" y="1080" width="170" height="60" as="geometry" />
        </mxCell>
        <mxCell id="yGUTDMeZ-cwYMbmgKR_8-1" value="users&amp;nbsp;&lt;br&gt;another table" style="rounded=0;whiteSpace=wrap;html=1;" parent="1" vertex="1">
          <mxGeometry x="1360" y="100" width="120" height="60" as="geometry" />
        </mxCell>
        <mxCell id="yGUTDMeZ-cwYMbmgKR_8-3" style="edgeStyle=orthogonalEdgeStyle;rounded=0;orthogonalLoop=1;jettySize=auto;html=1;entryX=0.187;entryY=0.036;entryDx=0;entryDy=0;entryPerimeter=0;" parent="1" source="bT2Npeidby6_5tNQyf9h-14" target="yGUTDMeZ-cwYMbmgKR_8-1" edge="1">
          <mxGeometry relative="1" as="geometry">
            <Array as="points">
              <mxPoint x="1790" />
              <mxPoint x="1382" />
            </Array>
          </mxGeometry>
        </mxCell>
        <mxCell id="zWEXtKfSe3jLvxgbQW-T-6" value="" style="edgeStyle=orthogonalEdgeStyle;rounded=0;orthogonalLoop=1;jettySize=auto;html=1;" edge="1" parent="1" source="zWEXtKfSe3jLvxgbQW-T-1" target="zWEXtKfSe3jLvxgbQW-T-5">
          <mxGeometry relative="1" as="geometry" />
        </mxCell>
        <mxCell id="zWEXtKfSe3jLvxgbQW-T-8" value="" style="edgeStyle=orthogonalEdgeStyle;rounded=0;orthogonalLoop=1;jettySize=auto;html=1;" edge="1" parent="1" source="zWEXtKfSe3jLvxgbQW-T-1" target="zWEXtKfSe3jLvxgbQW-T-7">
          <mxGeometry relative="1" as="geometry" />
        </mxCell>
        <mxCell id="zWEXtKfSe3jLvxgbQW-T-1" value="API Project" style="rounded=0;whiteSpace=wrap;html=1;" vertex="1" parent="1">
          <mxGeometry x="770" y="790" width="330" height="200" as="geometry" />
        </mxCell>
        <mxCell id="zWEXtKfSe3jLvxgbQW-T-2" value="Order" style="rounded=0;whiteSpace=wrap;html=1;" vertex="1" parent="1">
          <mxGeometry x="790" y="910" width="120" height="60" as="geometry" />
        </mxCell>
        <mxCell id="zWEXtKfSe3jLvxgbQW-T-4" value="Product" style="rounded=0;whiteSpace=wrap;html=1;" vertex="1" parent="1">
          <mxGeometry x="945" y="910" width="120" height="60" as="geometry" />
        </mxCell>
        <mxCell id="zWEXtKfSe3jLvxgbQW-T-5" value="Database" style="whiteSpace=wrap;html=1;rounded=0;" vertex="1" parent="1">
          <mxGeometry x="875" y="680" width="120" height="60" as="geometry" />
        </mxCell>
        <mxCell id="zWEXtKfSe3jLvxgbQW-T-7" value="Client" style="whiteSpace=wrap;html=1;rounded=0;" vertex="1" parent="1">
          <mxGeometry x="875" y="1060" width="120" height="60" as="geometry" />
        </mxCell>
        <mxCell id="zWEXtKfSe3jLvxgbQW-T-13" value="" style="edgeStyle=orthogonalEdgeStyle;rounded=0;orthogonalLoop=1;jettySize=auto;html=1;" edge="1" parent="1" source="zWEXtKfSe3jLvxgbQW-T-11" target="zWEXtKfSe3jLvxgbQW-T-12">
          <mxGeometry relative="1" as="geometry" />
        </mxCell>
        <mxCell id="zWEXtKfSe3jLvxgbQW-T-18" value="" style="edgeStyle=orthogonalEdgeStyle;rounded=0;orthogonalLoop=1;jettySize=auto;html=1;" edge="1" parent="1" source="zWEXtKfSe3jLvxgbQW-T-11" target="zWEXtKfSe3jLvxgbQW-T-17">
          <mxGeometry relative="1" as="geometry" />
        </mxCell>
        <mxCell id="zWEXtKfSe3jLvxgbQW-T-36" value="" style="edgeStyle=orthogonalEdgeStyle;rounded=0;orthogonalLoop=1;jettySize=auto;html=1;" edge="1" parent="1" source="zWEXtKfSe3jLvxgbQW-T-11" target="zWEXtKfSe3jLvxgbQW-T-35">
          <mxGeometry relative="1" as="geometry" />
        </mxCell>
        <mxCell id="zWEXtKfSe3jLvxgbQW-T-11" value="Order" style="rounded=0;whiteSpace=wrap;html=1;" vertex="1" parent="1">
          <mxGeometry x="1380" y="710" width="120" height="60" as="geometry" />
        </mxCell>
        <mxCell id="zWEXtKfSe3jLvxgbQW-T-12" value="Database" style="whiteSpace=wrap;html=1;rounded=0;" vertex="1" parent="1">
          <mxGeometry x="1380" y="570" width="120" height="60" as="geometry" />
        </mxCell>
        <mxCell id="zWEXtKfSe3jLvxgbQW-T-16" value="" style="edgeStyle=orthogonalEdgeStyle;rounded=0;orthogonalLoop=1;jettySize=auto;html=1;" edge="1" parent="1" source="zWEXtKfSe3jLvxgbQW-T-14" target="zWEXtKfSe3jLvxgbQW-T-15">
          <mxGeometry relative="1" as="geometry" />
        </mxCell>
        <mxCell id="zWEXtKfSe3jLvxgbQW-T-20" value="" style="edgeStyle=orthogonalEdgeStyle;rounded=0;orthogonalLoop=1;jettySize=auto;html=1;" edge="1" parent="1" source="zWEXtKfSe3jLvxgbQW-T-14" target="zWEXtKfSe3jLvxgbQW-T-19">
          <mxGeometry relative="1" as="geometry" />
        </mxCell>
        <mxCell id="zWEXtKfSe3jLvxgbQW-T-37" value="" style="edgeStyle=orthogonalEdgeStyle;rounded=0;orthogonalLoop=1;jettySize=auto;html=1;" edge="1" parent="1" source="zWEXtKfSe3jLvxgbQW-T-14" target="zWEXtKfSe3jLvxgbQW-T-35">
          <mxGeometry relative="1" as="geometry" />
        </mxCell>
        <mxCell id="zWEXtKfSe3jLvxgbQW-T-14" value="Product" style="rounded=0;whiteSpace=wrap;html=1;" vertex="1" parent="1">
          <mxGeometry x="1700" y="710" width="120" height="60" as="geometry" />
        </mxCell>
        <mxCell id="zWEXtKfSe3jLvxgbQW-T-15" value="Database" style="rounded=0;whiteSpace=wrap;html=1;" vertex="1" parent="1">
          <mxGeometry x="1700" y="570" width="120" height="60" as="geometry" />
        </mxCell>
        <mxCell id="zWEXtKfSe3jLvxgbQW-T-22" value="" style="edgeStyle=orthogonalEdgeStyle;rounded=0;orthogonalLoop=1;jettySize=auto;html=1;" edge="1" parent="1" source="zWEXtKfSe3jLvxgbQW-T-17" target="zWEXtKfSe3jLvxgbQW-T-21">
          <mxGeometry relative="1" as="geometry">
            <Array as="points">
              <mxPoint x="1550" y="845" />
              <mxPoint x="1550" y="940" />
              <mxPoint x="1650" y="940" />
            </Array>
          </mxGeometry>
        </mxCell>
        <mxCell id="zWEXtKfSe3jLvxgbQW-T-17" value="order.xyz.com" style="rounded=0;whiteSpace=wrap;html=1;" vertex="1" parent="1">
          <mxGeometry x="1380" y="815" width="120" height="60" as="geometry" />
        </mxCell>
        <mxCell id="zWEXtKfSe3jLvxgbQW-T-31" value="" style="edgeStyle=orthogonalEdgeStyle;rounded=0;orthogonalLoop=1;jettySize=auto;html=1;" edge="1" parent="1" source="zWEXtKfSe3jLvxgbQW-T-19" target="zWEXtKfSe3jLvxgbQW-T-30">
          <mxGeometry relative="1" as="geometry" />
        </mxCell>
        <mxCell id="zWEXtKfSe3jLvxgbQW-T-19" value="Product.xy.com" style="rounded=0;whiteSpace=wrap;html=1;" vertex="1" parent="1">
          <mxGeometry x="1700" y="805" width="120" height="70" as="geometry" />
        </mxCell>
        <mxCell id="zWEXtKfSe3jLvxgbQW-T-23" style="edgeStyle=orthogonalEdgeStyle;rounded=0;orthogonalLoop=1;jettySize=auto;html=1;entryX=0.5;entryY=1;entryDx=0;entryDy=0;" edge="1" parent="1" source="zWEXtKfSe3jLvxgbQW-T-21" target="zWEXtKfSe3jLvxgbQW-T-19">
          <mxGeometry relative="1" as="geometry">
            <Array as="points">
              <mxPoint x="1700" y="915" />
              <mxPoint x="1760" y="915" />
            </Array>
          </mxGeometry>
        </mxCell>
        <mxCell id="zWEXtKfSe3jLvxgbQW-T-25" value="" style="edgeStyle=orthogonalEdgeStyle;rounded=0;orthogonalLoop=1;jettySize=auto;html=1;" edge="1" parent="1" source="zWEXtKfSe3jLvxgbQW-T-21" target="zWEXtKfSe3jLvxgbQW-T-24">
          <mxGeometry relative="1" as="geometry" />
        </mxCell>
        <mxCell id="zWEXtKfSe3jLvxgbQW-T-27" value="" style="edgeStyle=orthogonalEdgeStyle;rounded=0;orthogonalLoop=1;jettySize=auto;html=1;" edge="1" parent="1" source="zWEXtKfSe3jLvxgbQW-T-21" target="zWEXtKfSe3jLvxgbQW-T-26">
          <mxGeometry relative="1" as="geometry">
            <Array as="points">
              <mxPoint x="1775" y="1000" />
              <mxPoint x="1775" y="1013" />
            </Array>
          </mxGeometry>
        </mxCell>
        <mxCell id="zWEXtKfSe3jLvxgbQW-T-29" value="" style="edgeStyle=orthogonalEdgeStyle;rounded=0;orthogonalLoop=1;jettySize=auto;html=1;" edge="1" parent="1" source="zWEXtKfSe3jLvxgbQW-T-21" target="zWEXtKfSe3jLvxgbQW-T-28">
          <mxGeometry relative="1" as="geometry" />
        </mxCell>
        <mxCell id="zWEXtKfSe3jLvxgbQW-T-32" style="edgeStyle=orthogonalEdgeStyle;rounded=0;orthogonalLoop=1;jettySize=auto;html=1;" edge="1" parent="1" source="zWEXtKfSe3jLvxgbQW-T-21">
          <mxGeometry relative="1" as="geometry">
            <mxPoint x="2140" y="860" as="targetPoint" />
            <Array as="points">
              <mxPoint x="1740" y="985" />
              <mxPoint x="1740" y="940" />
              <mxPoint x="2140" y="940" />
            </Array>
          </mxGeometry>
        </mxCell>
        <mxCell id="zWEXtKfSe3jLvxgbQW-T-21" value="gateway" style="whiteSpace=wrap;html=1;rounded=0;" vertex="1" parent="1">
          <mxGeometry x="1590" y="955" width="120" height="60" as="geometry" />
        </mxCell>
        <mxCell id="zWEXtKfSe3jLvxgbQW-T-24" value="Client" style="whiteSpace=wrap;html=1;rounded=0;" vertex="1" parent="1">
          <mxGeometry x="1590" y="1095" width="120" height="60" as="geometry" />
        </mxCell>
        <mxCell id="zWEXtKfSe3jLvxgbQW-T-26" value="Configurations&lt;br&gt;&lt;br&gt;order.xyz.con -&amp;gt; xyz.com/order" style="whiteSpace=wrap;html=1;rounded=0;" vertex="1" parent="1">
          <mxGeometry x="1840" y="955" width="230" height="115" as="geometry" />
        </mxCell>
        <mxCell id="zWEXtKfSe3jLvxgbQW-T-28" value="Ocelot" style="whiteSpace=wrap;html=1;rounded=0;" vertex="1" parent="1">
          <mxGeometry x="1390" y="955" width="120" height="60" as="geometry" />
        </mxCell>
        <mxCell id="zWEXtKfSe3jLvxgbQW-T-30" value="Downstream Urls" style="rounded=0;whiteSpace=wrap;html=1;" vertex="1" parent="1">
          <mxGeometry x="1900" y="805" width="120" height="70" as="geometry" />
        </mxCell>
        <mxCell id="zWEXtKfSe3jLvxgbQW-T-33" value="Upstream" style="rounded=0;whiteSpace=wrap;html=1;" vertex="1" parent="1">
          <mxGeometry x="2080" y="805" width="120" height="60" as="geometry" />
        </mxCell>
        <mxCell id="zWEXtKfSe3jLvxgbQW-T-35" value="Http Client" style="whiteSpace=wrap;html=1;rounded=0;" vertex="1" parent="1">
          <mxGeometry x="1540" y="710" width="120" height="60" as="geometry" />
        </mxCell>
        <mxCell id="zWEXtKfSe3jLvxgbQW-T-40" style="edgeStyle=orthogonalEdgeStyle;rounded=0;orthogonalLoop=1;jettySize=auto;html=1;entryX=0;entryY=0.75;entryDx=0;entryDy=0;" edge="1" parent="1" source="zWEXtKfSe3jLvxgbQW-T-38" target="zWEXtKfSe3jLvxgbQW-T-41">
          <mxGeometry relative="1" as="geometry">
            <mxPoint x="1500" y="1260" as="targetPoint" />
          </mxGeometry>
        </mxCell>
        <mxCell id="zWEXtKfSe3jLvxgbQW-T-38" value="product.ocelot.json" style="whiteSpace=wrap;html=1;" vertex="1" parent="1">
          <mxGeometry x="1190" y="1190" width="170" height="60" as="geometry" />
        </mxCell>
        <mxCell id="zWEXtKfSe3jLvxgbQW-T-41" value="ocelot.json" style="whiteSpace=wrap;html=1;" vertex="1" parent="1">
          <mxGeometry x="1515" y="1210" width="170" height="60" as="geometry" />
        </mxCell>
      </root>
    </mxGraphModel>
  </diagram>
</mxfile>
